<?xml version="1.0" encoding="UTF-8" standalone="no"?>
<!-- Generated by graphviz version 2.40.1 (20161225.0304)
 -->

<!-- Title: %3 Pages: 1 -->

<svg
   viewBox="0.00 0.00 1000.00 1279.00"
   version="1.1"
   id="svg1818"
   sodipodi:docname="trpl04-07.svg"
   inkscape:version="1.2.2 (b0a8486541, 2022-12-01)"
   xmlns:inkscape="http://www.inkscape.org/namespaces/inkscape"
   xmlns:sodipodi="http://sodipodi.sourceforge.net/DTD/sodipodi-0.dtd"
   xmlns="http://www.w3.org/2000/svg"
   xmlns:svg="http://www.w3.org/2000/svg">
  <defs
     id="defs1822" />
  <sodipodi:namedview
     id="namedview1820"
     pagecolor="#505050"
     bordercolor="#ffffff"
     borderopacity="1"
     inkscape:showpageshadow="0"
     inkscape:pageopacity="0"
     inkscape:pagecheckerboard="1"
     inkscape:deskcolor="#505050"
     showgrid="false"
     inkscape:zoom="0.4910086"
     inkscape:cx="499.99124"
     inkscape:cy="639.5"
     inkscape:window-width="1550"
     inkscape:window-height="831"
     inkscape:window-x="0"
     inkscape:window-y="0"
     inkscape:window-maximized="1"
     inkscape:current-layer="graph0" />
  <g
     id="graph0"
     class="graph"
     transform="scale(4.1667 4.1667) rotate(0) translate(4 275)">
    <title
       id="title1634">%3</title>
    <polygon
       fill="#ffffff"
       stroke="transparent"
       points="-4,4 -4,-275 233,-275 233,4 -4,4"
       id="polygon1636" />
    <!-- table0 -->
    <g
       id="node1"
       class="node">
      <title
         id="title1638">table0</title>
      <polyline
         fill="none"
         stroke="#000000"
         points="16,-121 88,-121 "
         id="polyline1640" />
      <text
         text-anchor="start"
         x="35.6689"
         y="-126.8"
         font-family="Times,serif"
         font-size="14.00"
         fill="#000000"
         id="text1642">world</text>
      <polygon
         fill="none"
         stroke="#000000"
         points="16,-101 16,-121 52,-121 52,-101 16,-101"
         id="polygon1644" />
      <text
         text-anchor="start"
         x="18.841299"
         y="-106.8"
         font-family="Times, serif"
         font-size="14px"
         fill="#000000"
         id="text1646">nome</text>
      <polygon
         fill="none"
         stroke="#000000"
         points="52,-121 88,-121 88,-101 52,-101 "
         id="polygon1648"
         transform="matrix(1.1100603,0,0,0.99911454,-5.6965741,-0.08057664)" />
      <text
         text-anchor="start"
         x="54.841301"
         y="-106.8"
         font-family="Times, serif"
         font-size="14px"
         fill="#000000"
         id="text1650">valore</text>
      <polygon
         fill="none"
         stroke="#000000"
         points="16,-81 16,-101 52,-101 52,-81 16,-81"
         id="polygon1652" />
      <text
         text-anchor="start"
         x="26.2241"
         y="-86.8"
         font-family="Times,serif"
         font-size="14.00"
         fill="#000000"
         id="text1654">ptr</text>
      <polygon
         fill="none"
         stroke="#000000"
         points="52,-101 88,-101 88,-81 52,-81 "
         id="polygon1656"
         transform="matrix(1.1100603,0,0,0.99911454,-5.6965741,-0.08057664)" />
      <polygon
         fill="none"
         stroke="#000000"
         points="16,-61 16,-81 52,-81 52,-61 16,-61"
         id="polygon1658" />
      <text
         text-anchor="start"
         x="25.4482"
         y="-66.8"
         font-family="Times,serif"
         font-size="14.00"
         fill="#000000"
         id="text1660">len</text>
      <polygon
         fill="none"
         stroke="#000000"
         points="52,-81 88,-81 88,-61 52,-61 "
         id="polygon1662"
         transform="matrix(1.1100603,0,0,0.99911454,-5.6965741,-0.08057664)" />
      <text
         text-anchor="start"
         x="68.899979"
         y="-66.800003"
         font-family="Times, serif"
         font-size="14px"
         fill="#000000"
         id="text1664">5</text>
    </g>
    <!-- table4 -->
    <g
       id="node3"
       class="node">
      <title
         id="title1667">table4</title>
      <polygon
         fill="none"
         stroke="#000000"
         points="148.5,-244 185.5,-244 185.5,-224 148.5,-224 "
         id="polygon1669"
         transform="matrix(1.0988093,0,0,0.99979943,-18.353196,-0.02487023)" />
      <text
         text-anchor="start"
         x="148.56822"
         y="-229.8"
         font-family="Times, serif"
         font-size="14px"
         fill="#000000"
         id="text1671">indice</text>
      <polygon
         fill="none"
         stroke="#000000"
         points="185.5,-244 221.5,-244 221.5,-224 185.5,-224 "
         id="polygon1673"
         transform="matrix(1.1014659,0,0,0.99979417,-18.797222,-0.02552304)" />
      <text
         text-anchor="start"
         x="188.34129"
         y="-229.8"
         font-family="Times, serif"
         font-size="14px"
         fill="#000000"
         id="text1675">valore</text>
      <polygon
         fill="none"
         stroke="#000000"
         points="148.5,-224 185.5,-224 185.5,-204 148.5,-204 "
         id="polygon1677"
         transform="matrix(1.0988093,0,0,0.99979943,-18.353196,-0.02487023)" />
      <text
         text-anchor="start"
         x="160.62003"
         y="-209.8"
         font-family="Times, serif"
         font-size="14px"
         fill="#000000"
         id="text1679">0</text>
      <polygon
         fill="none"
         stroke="#000000"
         points="185.5,-224 221.5,-224 221.5,-204 185.5,-204 "
         id="polygon1681"
         transform="matrix(1.1014659,0,0,0.99979417,-18.797222,-0.02552304)" />
      <text
         text-anchor="start"
         x="202.39998"
         y="-209.8"
         font-family="Times, serif"
         font-size="14px"
         fill="#000000"
         id="text1683">h</text>
      <polygon
         fill="none"
         stroke="#000000"
         points="148.5,-204 185.5,-204 185.5,-184 148.5,-184 "
         id="polygon1685"
         transform="matrix(1.0988093,0,0,0.99979943,-18.353196,-0.02487023)" />
      <text
         text-anchor="start"
         x="160.62003"
         y="-189.8"
         font-family="Times, serif"
         font-size="14px"
         fill="#000000"
         id="text1687">1</text>
      <polygon
         fill="none"
         stroke="#000000"
         points="185.5,-204 221.5,-204 221.5,-184 185.5,-184 "
         id="polygon1689"
         transform="matrix(1.1014659,0,0,0.99979417,-18.797222,-0.02552304)" />
      <text
         text-anchor="start"
         x="202.79308"
         y="-189.8"
         font-family="Times, serif"
         font-size="14px"
         fill="#000000"
         id="text1691">e</text>
      <polygon
         fill="none"
         stroke="#000000"
         points="148.5,-184 185.5,-184 185.5,-164 148.5,-164 "
         id="polygon1693"
         transform="matrix(1.0988093,0,0,0.99979943,-18.353196,-0.02487023)" />
      <text
         text-anchor="start"
         x="160.62003"
         y="-169.8"
         font-family="Times, serif"
         font-size="14px"
         fill="#000000"
         id="text1695">2</text>
      <polygon
         fill="none"
         stroke="#000000"
         points="185.5,-184 221.5,-184 221.5,-164 185.5,-164 "
         id="polygon1697"
         transform="matrix(1.1014659,0,0,0.99979417,-18.797222,-0.02552304)" />
      <text
         text-anchor="start"
         x="203.95518"
         y="-169.8"
         font-family="Times, serif"
         font-size="14px"
         fill="#000000"
         id="text1699">l</text>
      <polygon
         fill="none"
         stroke="#000000"
         points="148.5,-164 185.5,-164 185.5,-144 148.5,-144 "
         id="polygon1701"
         transform="matrix(1.0988093,0,0,0.99979943,-18.353196,-0.02487023)" />
      <text
         text-anchor="start"
         x="160.62003"
         y="-149.8"
         font-family="Times, serif"
         font-size="14px"
         fill="#000000"
         id="text1703">3</text>
      <polygon
         fill="none"
         stroke="#000000"
         points="185.5,-164 221.5,-164 221.5,-144 185.5,-144 "
         id="polygon1705"
         transform="matrix(1.1014659,0,0,0.99979417,-18.797222,-0.02552304)" />
      <text
         text-anchor="start"
         x="203.95518"
         y="-149.8"
         font-family="Times, serif"
         font-size="14px"
         fill="#000000"
         id="text1707">l</text>
      <polygon
         fill="none"
         stroke="#000000"
         points="148.5,-144 185.5,-144 185.5,-124 148.5,-124 "
         id="polygon1709"
         transform="matrix(1.0988093,0,0,0.99979943,-18.353196,-0.02487023)" />
      <text
         text-anchor="start"
         x="160.62003"
         y="-129.8"
         font-family="Times, serif"
         font-size="14px"
         fill="#000000"
         id="text1711">4</text>
      <polygon
         fill="none"
         stroke="#000000"
         points="185.5,-144 221.5,-144 221.5,-124 185.5,-124 "
         id="polygon1713"
         transform="matrix(1.1014659,0,0,0.99979417,-18.797222,-0.02552304)" />
      <text
         text-anchor="start"
         x="202.39998"
         y="-129.8"
         font-family="Times, serif"
         font-size="14px"
         fill="#000000"
         id="text1715">o</text>
      <polygon
         fill="none"
         stroke="#000000"
         points="148.5,-124 185.5,-124 185.5,-104 148.5,-104 "
         id="polygon1717"
         transform="matrix(1.0988093,0,0,0.99979943,-18.353196,-0.02487023)" />
      <text
         text-anchor="start"
         x="160.62003"
         y="-109.8"
         font-family="Times, serif"
         font-size="14px"
         fill="#000000"
         id="text1719">5</text>
      <polygon
         fill="none"
         stroke="#000000"
         points="185.5,-124 221.5,-124 221.5,-104 185.5,-104 "
         id="polygon1721"
         transform="matrix(1.1014659,0,0,0.99979417,-18.797222,-0.02552304)" />
      <text
         text-anchor="start"
         x="201.75"
         y="-109.8"
         font-family="Times,serif"
         font-size="14.00"
         fill="#000000"
         id="text1723" />
      <polygon
         fill="none"
         stroke="#000000"
         points="148.5,-104 185.5,-104 185.5,-84 148.5,-84 "
         id="polygon1725"
         transform="matrix(1.0988093,0,0,0.99979943,-18.353196,-0.02487023)" />
      <text
         text-anchor="start"
         x="160.62003"
         y="-89.800003"
         font-family="Times, serif"
         font-size="14px"
         fill="#000000"
         id="text1727">6</text>
      <polygon
         fill="none"
         stroke="#000000"
         points="185.5,-104 221.5,-104 221.5,-84 185.5,-84 "
         id="polygon1729"
         transform="matrix(1.1014659,0,0,0.99979417,-18.797222,-0.02552304)" />
      <text
         text-anchor="start"
         x="200.84477"
         y="-89.800003"
         font-family="Times, serif"
         font-size="14px"
         fill="#000000"
         id="text1731">w</text>
      <polygon
         fill="none"
         stroke="#000000"
         points="148.5,-84 185.5,-84 185.5,-64 148.5,-64 "
         id="polygon1733"
         transform="matrix(1.0988093,0,0,0.99979943,-18.353196,-0.02487023)" />
      <text
         text-anchor="start"
         x="160.62003"
         y="-69.800003"
         font-family="Times, serif"
         font-size="14px"
         fill="#000000"
         id="text1735">7</text>
      <polygon
         fill="none"
         stroke="#000000"
         points="185.5,-84 221.5,-84 221.5,-64 185.5,-64 "
         id="polygon1737"
         transform="matrix(1.1014659,0,0,0.99979417,-18.797222,-0.02552304)" />
      <text
         text-anchor="start"
         x="202.39998"
         y="-69.800003"
         font-family="Times, serif"
         font-size="14px"
         fill="#000000"
         id="text1739">o</text>
      <polygon
         fill="none"
         stroke="#000000"
         points="148.5,-64 185.5,-64 185.5,-44 148.5,-44 "
         id="polygon1741"
         transform="matrix(1.0988093,0,0,0.99979943,-18.353196,-0.02487023)" />
      <text
         text-anchor="start"
         x="160.62003"
         y="-49.799999"
         font-family="Times, serif"
         font-size="14px"
         fill="#000000"
         id="text1743">8</text>
      <polygon
         fill="none"
         stroke="#000000"
         points="185.5,-64 221.5,-64 221.5,-44 185.5,-44 "
         id="polygon1745"
         transform="matrix(1.1014659,0,0,0.99979417,-18.797222,-0.02552304)" />
      <text
         text-anchor="start"
         x="203.56888"
         y="-49.799999"
         font-family="Times, serif"
         font-size="14px"
         fill="#000000"
         id="text1747">r</text>
      <polygon
         fill="none"
         stroke="#000000"
         points="148.5,-44 185.5,-44 185.5,-24 148.5,-24 "
         id="polygon1749"
         transform="matrix(1.0988093,0,0,0.99979943,-18.353196,-0.02487023)" />
      <text
         text-anchor="start"
         x="160.62003"
         y="-29.799999"
         font-family="Times, serif"
         font-size="14px"
         fill="#000000"
         id="text1751">9</text>
      <polygon
         fill="none"
         stroke="#000000"
         points="185.5,-44 221.5,-44 221.5,-24 185.5,-24 "
         id="polygon1753"
         transform="matrix(1.1014659,0,0,0.99979417,-18.797222,-0.02552304)" />
      <text
         text-anchor="start"
         x="203.95518"
         y="-29.799999"
         font-family="Times, serif"
         font-size="14px"
         fill="#000000"
         id="text1755">l</text>
      <polygon
         fill="none"
         stroke="#000000"
         points="148.5,-24 185.5,-24 185.5,-4 148.5,-4 "
         id="polygon1757"
         transform="matrix(1.0988093,0,0,0.99979943,-18.353196,-0.02487023)" />
      <text
         text-anchor="start"
         x="157.12003"
         y="-9.8000002"
         font-family="Times, serif"
         font-size="14px"
         fill="#000000"
         id="text1759">10</text>
      <polygon
         fill="none"
         stroke="#000000"
         points="185.5,-24 221.5,-24 221.5,-4 185.5,-4 "
         id="polygon1761"
         transform="matrix(1.1014659,0,0,0.99979417,-18.797222,-0.02552304)" />
      <text
         text-anchor="start"
         x="202.39998"
         y="-9.8000002"
         font-family="Times, serif"
         font-size="14px"
         fill="#000000"
         id="text1763">d</text>
    </g>
    <!-- table0&#45;&gt;table4 -->
    <g
       id="edge1"
       class="edge"
       transform="matrix(0.89250508,0,0,1.0006406,13.754599,0.09866047)">
      <title
         id="title1766">table0:c-&gt;table4:pointee2</title>
      <path
         fill="none"
         stroke="#000000"
         d="m 70,-91 c 0,0 35.7964,-2.4639 68.4948,-2.9258"
         id="path1768" />
      <polygon
         fill="#000000"
         stroke="#000000"
         points="138.5263,-90.4259 138.4743,-97.4257 148.5,-94 "
         id="polygon1770" />
    </g>
    <!-- table3 -->
    <g
       id="node2"
       class="node">
      <title
         id="title1773">table3</title>
      <polyline
         fill="none"
         stroke="#000000"
         points="8,-247 96,-247 "
         id="polyline1775" />
      <text
         text-anchor="start"
         x="49.2759"
         y="-252.8"
         font-family="Times,serif"
         font-size="14.00"
         fill="#000000"
         id="text1777">s</text>
      <polygon
         fill="none"
         stroke="#000000"
         points="8,-227 8,-247 60,-247 60,-227 8,-227"
         id="polygon1779" />
      <text
         text-anchor="start"
         x="18.841299"
         y="-232.8"
         font-family="Times, serif"
         font-size="14px"
         fill="#000000"
         id="text1781">nome</text>
      <polygon
         fill="none"
         stroke="#000000"
         points="60,-247 96,-247 96,-227 60,-227 "
         id="polygon1783"
         transform="matrix(1.1646158,0,0,0.99901696,-9.8376252,-0.203489)" />
      <text
         text-anchor="start"
         x="62.841301"
         y="-232.8"
         font-family="Times, serif"
         font-size="14px"
         fill="#000000"
         id="text1785">valore</text>
      <polygon
         fill="none"
         stroke="#000000"
         points="8,-207 8,-227 60,-227 60,-207 8,-207"
         id="polygon1787" />
      <text
         text-anchor="start"
         x="26.2241"
         y="-212.8"
         font-family="Times,serif"
         font-size="14.00"
         fill="#000000"
         id="text1789">ptr</text>
      <polygon
         fill="none"
         stroke="#000000"
         points="60,-227 96,-227 96,-207 60,-207 "
         id="polygon1791"
         transform="matrix(1.1646158,0,0,0.99901696,-9.8376252,-0.203489)" />
      <polygon
         fill="none"
         stroke="#000000"
         points="8,-187 8,-207 60,-207 60,-187 8,-187"
         id="polygon1793" />
      <text
         text-anchor="start"
         x="25.4482"
         y="-192.8"
         font-family="Times,serif"
         font-size="14.00"
         fill="#000000"
         id="text1795">len</text>
      <polygon
         fill="none"
         stroke="#000000"
         points="60,-207 96,-207 96,-187 60,-187 "
         id="polygon1797"
         transform="matrix(1.1646158,0,0,0.99901696,-9.8376252,-0.203489)" />
      <text
         text-anchor="start"
         x="73.656281"
         y="-192.8"
         font-family="Times, serif"
         font-size="14px"
         fill="#000000"
         id="text1799">11</text>
      <polygon
         fill="none"
         stroke="#000000"
         points="8,-167 8,-187 60,-187 60,-167 8,-167"
         id="polygon1801" />
      <text
         text-anchor="start"
         x="10.6826"
         y="-172.8"
         font-family="Times,serif"
         font-size="14.00"
         fill="#000000"
         id="text1803">capacity</text>
      <polygon
         fill="none"
         stroke="#000000"
         points="60,-187 96,-187 96,-167 60,-167 "
         id="polygon1805"
         transform="matrix(1.1646158,0,0,0.99901696,-9.8376252,-0.203489)" />
      <text
         text-anchor="start"
         x="73.656281"
         y="-172.8"
         font-family="Times, serif"
         font-size="14px"
         fill="#000000"
         id="text1807">11</text>
    </g>
    <!-- table3&#45;&gt;table4 -->
    <g
       id="edge2"
       class="edge"
       transform="matrix(0.89250508,0,0,1.0006406,13.754599,0.09866047)">
      <title
         id="title1810">table3:c-&gt;table4:pointee</title>
      <path
         fill="none"
         stroke="#000000"
         d="m 78,-217 c 0,0 31.3179,2.4006 60.3725,2.9069"
         id="path1812" />
      <polygon
         fill="#000000"
         stroke="#000000"
         points="138.4682,-210.5921 138.5326,-217.5918 148.5,-214 "
         id="polygon1814" />
    </g>
  </g>
</svg>
