<?xml version="1.0" encoding="UTF-8" standalone="no"?>
<!-- Generated by graphviz version 2.40.1 (20161225.0304)
 -->

<!-- Title: %3 Pages: 1 -->

<svg
   viewBox="0.00 0.00 1000.00 700.00"
   version="1.1"
   id="svg102"
   sodipodi:docname="trpl04-01.svg"
   inkscape:version="1.2.2 (b0a8486541, 2022-12-01)"
   xmlns:inkscape="http://www.inkscape.org/namespaces/inkscape"
   xmlns:sodipodi="http://sodipodi.sourceforge.net/DTD/sodipodi-0.dtd"
   xmlns="http://www.w3.org/2000/svg"
   xmlns:svg="http://www.w3.org/2000/svg">
  <defs
     id="defs106" />
  <sodipodi:namedview
     id="namedview104"
     pagecolor="#505050"
     bordercolor="#ffffff"
     borderopacity="1"
     inkscape:showpageshadow="0"
     inkscape:pageopacity="0"
     inkscape:pagecheckerboard="1"
     inkscape:deskcolor="#505050"
     showgrid="false"
     inkscape:zoom="0.86857143"
     inkscape:cx="501.39803"
     inkscape:cy="350"
     inkscape:window-width="1550"
     inkscape:window-height="831"
     inkscape:window-x="0"
     inkscape:window-y="0"
     inkscape:window-maximized="1"
     inkscape:current-layer="graph0" />
  <g
     id="graph0"
     class="graph"
     transform="scale(4.1667 4.1667) rotate(0) translate(4 152)">
    <title
       id="title2">%3</title>
    <polygon
       fill="#ffffff"
       stroke="transparent"
       points="-4,4 -4,-152 233,-152 233,4 -4,4"
       id="polygon4" />
    <!-- table0 -->
    <g
       id="node1"
       class="node">
      <title
         id="title6">table0</title>
      <polyline
         fill="none"
         stroke="#000000"
         points="8,-124 96,-124 "
         id="polyline8" />
      <text
         text-anchor="start"
         x="45.7759"
         y="-129.8"
         font-family="Times,serif"
         font-size="14.00"
         fill="#000000"
         id="text10">s1</text>
      <polygon
         fill="none"
         stroke="#000000"
         points="8,-104 8,-124 60,-124 60,-104 8,-104"
         id="polygon12" />
      <text
         text-anchor="start"
         x="18.841299"
         y="-109.8"
         font-family="Times, serif"
         font-size="14px"
         fill="#000000"
         id="text14">nome</text>
      <polygon
         fill="none"
         stroke="#000000"
         points="60,-124 96,-124 96,-104 60,-104 "
         id="polygon16"
         transform="matrix(1.1337312,0,0,0.99919575,-7.9916997,-0.06755686)" />
      <text
         text-anchor="start"
         x="62.841301"
         y="-109.8"
         font-family="Times, serif"
         font-size="14px"
         fill="#000000"
         id="text18">valore</text>
      <polygon
         fill="none"
         stroke="#000000"
         points="8,-84 8,-104 60,-104 60,-84 8,-84"
         id="polygon20" />
      <text
         text-anchor="start"
         x="26.2241"
         y="-89.8"
         font-family="Times,serif"
         font-size="14.00"
         fill="#000000"
         id="text22">ptr</text>
      <polygon
         fill="none"
         stroke="#000000"
         points="60,-104 96,-104 96,-84 60,-84 "
         id="polygon24"
         transform="matrix(1.1337312,0,0,0.99919575,-7.9916997,-0.06755686)" />
      <polygon
         fill="none"
         stroke="#000000"
         points="8,-64 8,-84 60,-84 60,-64 8,-64"
         id="polygon26" />
      <text
         text-anchor="start"
         x="25.4482"
         y="-69.8"
         font-family="Times,serif"
         font-size="14.00"
         fill="#000000"
         id="text28">len</text>
      <polygon
         fill="none"
         stroke="#000000"
         points="60,-84 96,-84 96,-64 60,-64 "
         id="polygon30"
         transform="matrix(1.1337312,0,0,0.99919575,-7.9916997,-0.06755686)" />
      <text
         text-anchor="start"
         x="76.899979"
         y="-69.800003"
         font-family="Times, serif"
         font-size="14px"
         fill="#000000"
         id="text32">5</text>
      <polygon
         fill="none"
         stroke="#000000"
         points="8,-44 8,-64 60,-64 60,-44 8,-44"
         id="polygon34" />
      <text
         text-anchor="start"
         x="10.6826"
         y="-49.8"
         font-family="Times,serif"
         font-size="14.00"
         fill="#000000"
         id="text36">capacity</text>
      <polygon
         fill="none"
         stroke="#000000"
         points="60,-64 96,-64 96,-44 60,-44 "
         id="polygon38"
         transform="matrix(1.1337312,0,0,0.99919575,-7.9916997,-0.06755686)" />
      <text
         text-anchor="start"
         x="76.899979"
         y="-49.799999"
         font-family="Times, serif"
         font-size="14px"
         fill="#000000"
         id="text40">5</text>
    </g>
    <!-- table1 -->
    <g
       id="node2"
       class="node">
      <title
         id="title43">table1</title>
      <polygon
         fill="none"
         stroke="#000000"
         points="148.5,-124 185.5,-124 185.5,-104 148.5,-104 "
         id="polygon45"
         transform="matrix(1.1078628,0,0,0.99956399,-20.03471,-0.0279046)" />
      <text
         text-anchor="start"
         x="148.56822"
         y="-109.8"
         font-family="Times, serif"
         font-size="14px"
         fill="#000000"
         id="text47">indice</text>
      <polygon
         fill="none"
         stroke="#000000"
         points="185.5,-124 221.5,-124 221.5,-104 185.5,-104 "
         id="polygon49"
         transform="matrix(1.1275119,0,0,0.99948691,-23.622665,-0.03283796)" />
      <text
         text-anchor="start"
         x="188.34129"
         y="-109.8"
         font-family="Times, serif"
         font-size="14px"
         fill="#000000"
         id="text51">valore</text>
      <polygon
         fill="none"
         stroke="#000000"
         points="148.5,-104 185.5,-104 185.5,-84 148.5,-84 "
         id="polygon53"
         transform="matrix(1.1078628,0,0,0.99956399,-20.03471,-0.0279046)" />
      <text
         text-anchor="start"
         x="161.10002"
         y="-89.800003"
         font-family="Times, serif"
         font-size="14px"
         fill="#000000"
         id="text55">0</text>
      <polygon
         fill="none"
         stroke="#000000"
         points="185.5,-104 221.5,-104 221.5,-84 185.5,-84 "
         id="polygon57"
         transform="matrix(1.1275119,0,0,0.99948691,-23.622665,-0.03283796)" />
      <text
         text-anchor="start"
         x="202.87997"
         y="-89.800003"
         font-family="Times, serif"
         font-size="14px"
         fill="#000000"
         id="text59">h</text>
      <polygon
         fill="none"
         stroke="#000000"
         points="148.5,-84 185.5,-84 185.5,-64 148.5,-64 "
         id="polygon61"
         transform="matrix(1.1078628,0,0,0.99956399,-20.03471,-0.0279046)" />
      <text
         text-anchor="start"
         x="161.10002"
         y="-69.800003"
         font-family="Times, serif"
         font-size="14px"
         fill="#000000"
         id="text63">1</text>
      <polygon
         fill="none"
         stroke="#000000"
         points="185.5,-84 221.5,-84 221.5,-64 185.5,-64 "
         id="polygon65"
         transform="matrix(1.1275119,0,0,0.99948691,-23.622665,-0.03283796)" />
      <text
         text-anchor="start"
         x="203.27307"
         y="-69.800003"
         font-family="Times, serif"
         font-size="14px"
         fill="#000000"
         id="text67">e</text>
      <polygon
         fill="none"
         stroke="#000000"
         points="148.5,-64 185.5,-64 185.5,-44 148.5,-44 "
         id="polygon69"
         transform="matrix(1.1078628,0,0,0.99956399,-20.03471,-0.0279046)" />
      <text
         text-anchor="start"
         x="161.10002"
         y="-49.799999"
         font-family="Times, serif"
         font-size="14px"
         fill="#000000"
         id="text71">2</text>
      <polygon
         fill="none"
         stroke="#000000"
         points="185.5,-64 221.5,-64 221.5,-44 185.5,-44 "
         id="polygon73"
         transform="matrix(1.1275119,0,0,0.99948691,-23.622665,-0.03283796)" />
      <text
         text-anchor="start"
         x="204.43518"
         y="-49.799999"
         font-family="Times, serif"
         font-size="14px"
         fill="#000000"
         id="text75">l</text>
      <polygon
         fill="none"
         stroke="#000000"
         points="148.5,-44 185.5,-44 185.5,-24 148.5,-24 "
         id="polygon77"
         transform="matrix(1.1078628,0,0,0.99956399,-20.03471,-0.0279046)" />
      <text
         text-anchor="start"
         x="161.10002"
         y="-29.799999"
         font-family="Times, serif"
         font-size="14px"
         fill="#000000"
         id="text79">3</text>
      <polygon
         fill="none"
         stroke="#000000"
         points="185.5,-44 221.5,-44 221.5,-24 185.5,-24 "
         id="polygon81"
         transform="matrix(1.1275119,0,0,0.99948691,-23.622665,-0.03283796)" />
      <text
         text-anchor="start"
         x="204.43518"
         y="-29.799999"
         font-family="Times, serif"
         font-size="14px"
         fill="#000000"
         id="text83">l</text>
      <polygon
         fill="none"
         stroke="#000000"
         points="148.5,-24 185.5,-24 185.5,-4 148.5,-4 "
         id="polygon85"
         transform="matrix(1.1078628,0,0,0.99956399,-20.03471,-0.0279046)" />
      <text
         text-anchor="start"
         x="161.10002"
         y="-9.8000002"
         font-family="Times, serif"
         font-size="14px"
         fill="#000000"
         id="text87">4</text>
      <polygon
         fill="none"
         stroke="#000000"
         points="185.5,-24 221.5,-24 221.5,-4 185.5,-4 "
         id="polygon89"
         transform="matrix(1.1275119,0,0,0.99948691,-23.622665,-0.03283796)" />
      <text
         text-anchor="start"
         x="202.87997"
         y="-9.8000002"
         font-family="Times, serif"
         font-size="14px"
         fill="#000000"
         id="text91">o</text>
    </g>
    <!-- table0&#45;&gt;table1 -->
    <g
       id="edge1"
       class="edge"
       transform="matrix(0.88078856,0,0,1.0117385,15.456028,1.103422)">
      <title
         id="title94">table0:c-&gt;table1:pointee</title>
      <path
         fill="none"
         stroke="#000000"
         d="m 78,-94 c 0,0 31.3406,0 60.3797,0"
         id="path96" />
      <polygon
         fill="#000000"
         stroke="#000000"
         points="138.5,-90.5001 138.5,-97.5001 148.5,-94 "
         id="polygon98" />
    </g>
  </g>
</svg>
