<?xml version="1.0" encoding="UTF-8" standalone="no"?>
<!-- Generated by graphviz version 2.40.1 (20161225.0304)
 -->

<!-- Title: %3 Pages: 1 -->

<svg
   viewBox="0.00 0.00 1000.00 1300.00"
   version="1.1"
   id="svg7861"
   sodipodi:docname="trpl04-03.svg"
   inkscape:version="1.2.2 (b0a8486541, 2022-12-01)"
   xmlns:inkscape="http://www.inkscape.org/namespaces/inkscape"
   xmlns:sodipodi="http://sodipodi.sourceforge.net/DTD/sodipodi-0.dtd"
   xmlns="http://www.w3.org/2000/svg"
   xmlns:svg="http://www.w3.org/2000/svg">
  <defs
     id="defs7865" />
  <sodipodi:namedview
     id="namedview7863"
     pagecolor="#505050"
     bordercolor="#ffffff"
     borderopacity="1"
     inkscape:showpageshadow="0"
     inkscape:pageopacity="0"
     inkscape:pagecheckerboard="1"
     inkscape:deskcolor="#505050"
     showgrid="false"
     inkscape:zoom="0.46769231"
     inkscape:cx="501.39803"
     inkscape:cy="650"
     inkscape:window-width="1550"
     inkscape:window-height="831"
     inkscape:window-x="0"
     inkscape:window-y="0"
     inkscape:window-maximized="1"
     inkscape:current-layer="node1-7" />
  <g
     id="graph0"
     class="graph"
     transform="scale(4.1667 4.1667) rotate(0) translate(4 298)">
    <title
       id="title7666">%3</title>
    <polygon
       fill="#ffffff"
       stroke="transparent"
       points="-4,4 -4,-298 233,-298 233,4 -4,4"
       id="polygon7668" />
    <g
       id="node2-6"
       class="node"
       transform="translate(0.08284918,-146.11039)">
      <title
         id="title43-1">table1</title>
      <polygon
         fill="none"
         stroke="#000000"
         points="148.5,-104 148.5,-124 185.5,-124 185.5,-104 "
         id="polygon45-8"
         transform="matrix(1.1078628,0,0,0.99956399,-20.03471,-0.0279046)" />
      <text
         text-anchor="start"
         x="148.56822"
         y="-109.8"
         font-family="Times, serif"
         font-size="14px"
         fill="#000000"
         id="text47-7">indice</text>
      <polygon
         fill="none"
         stroke="#000000"
         points="185.5,-104 185.5,-124 221.5,-124 221.5,-104 "
         id="polygon49-9"
         transform="matrix(1.1275119,0,0,0.99948691,-23.622665,-0.03283796)" />
      <text
         text-anchor="start"
         x="188.34129"
         y="-109.8"
         font-family="Times, serif"
         font-size="14px"
         fill="#000000"
         id="text51-2">valore</text>
      <polygon
         fill="none"
         stroke="#000000"
         points="148.5,-84 148.5,-104 185.5,-104 185.5,-84 "
         id="polygon53-0"
         transform="matrix(1.1078628,0,0,0.99956399,-20.03471,-0.0279046)" />
      <text
         text-anchor="start"
         x="161.10002"
         y="-89.800003"
         font-family="Times, serif"
         font-size="14px"
         fill="#000000"
         id="text55-2">0</text>
      <polygon
         fill="none"
         stroke="#000000"
         points="185.5,-84 185.5,-104 221.5,-104 221.5,-84 "
         id="polygon57-3"
         transform="matrix(1.1275119,0,0,0.99948691,-23.622665,-0.03283796)" />
      <text
         text-anchor="start"
         x="202.87997"
         y="-89.800003"
         font-family="Times, serif"
         font-size="14px"
         fill="#000000"
         id="text59-7">h</text>
      <polygon
         fill="none"
         stroke="#000000"
         points="148.5,-64 148.5,-84 185.5,-84 185.5,-64 "
         id="polygon61-5"
         transform="matrix(1.1078628,0,0,0.99956399,-20.03471,-0.0279046)" />
      <text
         text-anchor="start"
         x="161.10002"
         y="-69.800003"
         font-family="Times, serif"
         font-size="14px"
         fill="#000000"
         id="text63-9">1</text>
      <polygon
         fill="none"
         stroke="#000000"
         points="185.5,-64 185.5,-84 221.5,-84 221.5,-64 "
         id="polygon65-2"
         transform="matrix(1.1275119,0,0,0.99948691,-23.622665,-0.03283796)" />
      <text
         text-anchor="start"
         x="203.27307"
         y="-69.800003"
         font-family="Times, serif"
         font-size="14px"
         fill="#000000"
         id="text67-2">e</text>
      <polygon
         fill="none"
         stroke="#000000"
         points="148.5,-44 148.5,-64 185.5,-64 185.5,-44 "
         id="polygon69-8"
         transform="matrix(1.1078628,0,0,0.99956399,-20.03471,-0.0279046)" />
      <text
         text-anchor="start"
         x="161.10002"
         y="-49.799999"
         font-family="Times, serif"
         font-size="14px"
         fill="#000000"
         id="text71-9">2</text>
      <polygon
         fill="none"
         stroke="#000000"
         points="185.5,-44 185.5,-64 221.5,-64 221.5,-44 "
         id="polygon73-7"
         transform="matrix(1.1275119,0,0,0.99948691,-23.622665,-0.03283796)" />
      <text
         text-anchor="start"
         x="204.43518"
         y="-49.799999"
         font-family="Times, serif"
         font-size="14px"
         fill="#000000"
         id="text75-3">l</text>
      <polygon
         fill="none"
         stroke="#000000"
         points="148.5,-24 148.5,-44 185.5,-44 185.5,-24 "
         id="polygon77-6"
         transform="matrix(1.1078628,0,0,0.99956399,-20.03471,-0.0279046)" />
      <text
         text-anchor="start"
         x="161.10002"
         y="-29.799999"
         font-family="Times, serif"
         font-size="14px"
         fill="#000000"
         id="text79-1">3</text>
      <polygon
         fill="none"
         stroke="#000000"
         points="185.5,-24 185.5,-44 221.5,-44 221.5,-24 "
         id="polygon81-2"
         transform="matrix(1.1275119,0,0,0.99948691,-23.622665,-0.03283796)" />
      <text
         text-anchor="start"
         x="204.43518"
         y="-29.799999"
         font-family="Times, serif"
         font-size="14px"
         fill="#000000"
         id="text83-9">l</text>
      <polygon
         fill="none"
         stroke="#000000"
         points="148.5,-4 148.5,-24 185.5,-24 185.5,-4 "
         id="polygon85-3"
         transform="matrix(1.1078628,0,0,0.99956399,-20.03471,-0.0279046)" />
      <text
         text-anchor="start"
         x="161.10002"
         y="-9.8000002"
         font-family="Times, serif"
         font-size="14px"
         fill="#000000"
         id="text87-1">4</text>
      <polygon
         fill="none"
         stroke="#000000"
         points="185.5,-4 185.5,-24 221.5,-24 221.5,-4 "
         id="polygon89-9"
         transform="matrix(1.1275119,0,0,0.99948691,-23.622665,-0.03283796)" />
      <text
         text-anchor="start"
         x="202.87997"
         y="-9.8000002"
         font-family="Times, serif"
         font-size="14px"
         fill="#000000"
         id="text91-4">o</text>
    </g>
    <!-- table0 -->
    <!-- table1 -->
    <!-- table0&#45;&gt;table1 -->
    <g
       id="edge1"
       class="edge">
      <title
         id="title7758">table0:c-&gt;table1:pointee</title>
      <path
         fill="none"
         stroke="#000000"
         d="M78,-94C78,-94 109.3406,-94 138.3797,-94"
         id="path7760" />
      <polygon
         fill="#000000"
         stroke="#000000"
         points="138.5,-97.5001 148.5,-94 138.5,-90.5001 138.5,-97.5001"
         id="polygon7762" />
    </g>
    <!-- table3 -->
    <!-- table4 -->
    <!-- table3&#45;&gt;table4 -->
    <g
       id="edge2"
       class="edge">
      <title
         id="title7853">table3:c-&gt;table4:pointee</title>
      <path
         fill="none"
         stroke="#000000"
         d="M78,-240C78,-240 109.3406,-240 138.3797,-240"
         id="path7855" />
      <polygon
         fill="#000000"
         stroke="#000000"
         points="138.5,-243.5001 148.5,-240 138.5,-236.5001 138.5,-243.5001"
         id="polygon7857" />
    </g>
    <g
       id="node2"
       class="node"
       transform="translate(0.79645334,-0.13016044)">
      <title
         id="title43">table1</title>
      <polygon
         fill="none"
         stroke="#000000"
         points="148.5,-104 148.5,-124 185.5,-124 185.5,-104 "
         id="polygon45"
         transform="matrix(1.1078628,0,0,0.99956399,-20.03471,-0.0279046)" />
      <text
         text-anchor="start"
         x="148.56822"
         y="-109.8"
         font-family="Times, serif"
         font-size="14px"
         fill="#000000"
         id="text47">indice</text>
      <polygon
         fill="none"
         stroke="#000000"
         points="185.5,-104 185.5,-124 221.5,-124 221.5,-104 "
         id="polygon49"
         transform="matrix(1.1275119,0,0,0.99948691,-23.622665,-0.03283796)" />
      <text
         text-anchor="start"
         x="188.34129"
         y="-109.8"
         font-family="Times, serif"
         font-size="14px"
         fill="#000000"
         id="text51">valore</text>
      <polygon
         fill="none"
         stroke="#000000"
         points="148.5,-84 148.5,-104 185.5,-104 185.5,-84 "
         id="polygon53"
         transform="matrix(1.1078628,0,0,0.99956399,-20.03471,-0.0279046)" />
      <text
         text-anchor="start"
         x="161.10002"
         y="-89.800003"
         font-family="Times, serif"
         font-size="14px"
         fill="#000000"
         id="text55">0</text>
      <polygon
         fill="none"
         stroke="#000000"
         points="185.5,-84 185.5,-104 221.5,-104 221.5,-84 "
         id="polygon57"
         transform="matrix(1.1275119,0,0,0.99948691,-23.622665,-0.03283796)" />
      <text
         text-anchor="start"
         x="202.87997"
         y="-89.800003"
         font-family="Times, serif"
         font-size="14px"
         fill="#000000"
         id="text59">h</text>
      <polygon
         fill="none"
         stroke="#000000"
         points="148.5,-64 148.5,-84 185.5,-84 185.5,-64 "
         id="polygon61"
         transform="matrix(1.1078628,0,0,0.99956399,-20.03471,-0.0279046)" />
      <text
         text-anchor="start"
         x="161.10002"
         y="-69.800003"
         font-family="Times, serif"
         font-size="14px"
         fill="#000000"
         id="text63">1</text>
      <polygon
         fill="none"
         stroke="#000000"
         points="185.5,-64 185.5,-84 221.5,-84 221.5,-64 "
         id="polygon65"
         transform="matrix(1.1275119,0,0,0.99948691,-23.622665,-0.03283796)" />
      <text
         text-anchor="start"
         x="203.27307"
         y="-69.800003"
         font-family="Times, serif"
         font-size="14px"
         fill="#000000"
         id="text67">e</text>
      <polygon
         fill="none"
         stroke="#000000"
         points="148.5,-44 148.5,-64 185.5,-64 185.5,-44 "
         id="polygon69"
         transform="matrix(1.1078628,0,0,0.99956399,-20.03471,-0.0279046)" />
      <text
         text-anchor="start"
         x="161.10002"
         y="-49.799999"
         font-family="Times, serif"
         font-size="14px"
         fill="#000000"
         id="text71">2</text>
      <polygon
         fill="none"
         stroke="#000000"
         points="185.5,-44 185.5,-64 221.5,-64 221.5,-44 "
         id="polygon73"
         transform="matrix(1.1275119,0,0,0.99948691,-23.622665,-0.03283796)" />
      <text
         text-anchor="start"
         x="204.43518"
         y="-49.799999"
         font-family="Times, serif"
         font-size="14px"
         fill="#000000"
         id="text75">l</text>
      <polygon
         fill="none"
         stroke="#000000"
         points="148.5,-24 148.5,-44 185.5,-44 185.5,-24 "
         id="polygon77"
         transform="matrix(1.1078628,0,0,0.99956399,-20.03471,-0.0279046)" />
      <text
         text-anchor="start"
         x="161.10002"
         y="-29.799999"
         font-family="Times, serif"
         font-size="14px"
         fill="#000000"
         id="text79">3</text>
      <polygon
         fill="none"
         stroke="#000000"
         points="185.5,-24 185.5,-44 221.5,-44 221.5,-24 "
         id="polygon81"
         transform="matrix(1.1275119,0,0,0.99948691,-23.622665,-0.03283796)" />
      <text
         text-anchor="start"
         x="204.43518"
         y="-29.799999"
         font-family="Times, serif"
         font-size="14px"
         fill="#000000"
         id="text83">l</text>
      <polygon
         fill="none"
         stroke="#000000"
         points="148.5,-4 148.5,-24 185.5,-24 185.5,-4 "
         id="polygon85"
         transform="matrix(1.1078628,0,0,0.99956399,-20.03471,-0.0279046)" />
      <text
         text-anchor="start"
         x="161.10002"
         y="-9.8000002"
         font-family="Times, serif"
         font-size="14px"
         fill="#000000"
         id="text87">4</text>
      <polygon
         fill="none"
         stroke="#000000"
         points="185.5,-4 185.5,-24 221.5,-24 221.5,-4 "
         id="polygon89"
         transform="matrix(1.1275119,0,0,0.99948691,-23.622665,-0.03283796)" />
      <text
         text-anchor="start"
         x="202.87997"
         y="-9.8000002"
         font-family="Times, serif"
         font-size="14px"
         fill="#000000"
         id="text91">o</text>
    </g>
    <g
       id="node1"
       class="node"
       transform="translate(-7.8508967,-145.5968)">
      <title
         id="title6">table0</title>
      <polyline
         fill="none"
         stroke="#000000"
         points="8,-124 96,-124 "
         id="polyline8" />
      <text
         text-anchor="start"
         x="45.775902"
         y="-129.8"
         font-family="Times, serif"
         font-size="14px"
         fill="#000000"
         id="text10">s1</text>
      <polygon
         fill="none"
         stroke="#000000"
         points="60,-104 8,-104 8,-124 60,-124 "
         id="polygon12" />
      <text
         text-anchor="start"
         x="18.841299"
         y="-109.8"
         font-family="Times, serif"
         font-size="14px"
         fill="#000000"
         id="text14">nome</text>
      <polygon
         fill="none"
         stroke="#000000"
         points="60,-104 60,-124 96,-124 96,-104 "
         id="polygon16"
         transform="matrix(1.1337312,0,0,0.99919575,-7.9916997,-0.06755686)" />
      <text
         text-anchor="start"
         x="62.841301"
         y="-109.8"
         font-family="Times, serif"
         font-size="14px"
         fill="#000000"
         id="text18">valore</text>
      <polygon
         fill="none"
         stroke="#000000"
         points="60,-84 8,-84 8,-104 60,-104 "
         id="polygon20" />
      <text
         text-anchor="start"
         x="26.2241"
         y="-89.800003"
         font-family="Times, serif"
         font-size="14px"
         fill="#000000"
         id="text22">ptr</text>
      <polygon
         fill="none"
         stroke="#000000"
         points="60,-84 60,-104 96,-104 96,-84 "
         id="polygon24"
         transform="matrix(1.1337312,0,0,0.99919575,-7.9916997,-0.06755686)" />
      <polygon
         fill="none"
         stroke="#000000"
         points="60,-64 8,-64 8,-84 60,-84 "
         id="polygon26" />
      <text
         text-anchor="start"
         x="25.4482"
         y="-69.800003"
         font-family="Times, serif"
         font-size="14px"
         fill="#000000"
         id="text28">len</text>
      <polygon
         fill="none"
         stroke="#000000"
         points="60,-64 60,-84 96,-84 96,-64 "
         id="polygon30"
         transform="matrix(1.1337312,0,0,0.99919575,-7.9916997,-0.06755686)" />
      <text
         text-anchor="start"
         x="76.899979"
         y="-69.800003"
         font-family="Times, serif"
         font-size="14px"
         fill="#000000"
         id="text32">5</text>
      <polygon
         fill="none"
         stroke="#000000"
         points="60,-44 8,-44 8,-64 60,-64 "
         id="polygon34" />
      <text
         text-anchor="start"
         x="10.6826"
         y="-49.799999"
         font-family="Times, serif"
         font-size="14px"
         fill="#000000"
         id="text36">capacity</text>
      <polygon
         fill="none"
         stroke="#000000"
         points="60,-44 60,-64 96,-64 96,-44 "
         id="polygon38"
         transform="matrix(1.1337312,0,0,0.99919575,-7.9916997,-0.06755686)" />
      <text
         text-anchor="start"
         x="76.899979"
         y="-49.799999"
         font-family="Times, serif"
         font-size="14px"
         fill="#000000"
         id="text40">5</text>
    </g>
    <g
       id="node1-7"
       class="node"
       transform="translate(-7.8248387,-0.60078334)">
      <title
         id="title6-8">table0</title>
      <polyline
         fill="none"
         stroke="#000000"
         points="8,-124 96,-124 "
         id="polyline8-4" />
      <text
         text-anchor="start"
         x="45.775902"
         y="-129.8"
         font-family="Times, serif"
         font-size="14px"
         fill="#000000"
         id="text10-5">s2</text>
      <polygon
         fill="none"
         stroke="#000000"
         points="60,-104 8,-104 8,-124 60,-124 "
         id="polygon12-0" />
      <text
         text-anchor="start"
         x="18.841299"
         y="-109.8"
         font-family="Times, serif"
         font-size="14px"
         fill="#000000"
         id="text14-3">nome</text>
      <polygon
         fill="none"
         stroke="#000000"
         points="60,-104 60,-124 96,-124 96,-104 "
         id="polygon16-6"
         transform="matrix(1.1337312,0,0,0.99919575,-7.9916997,-0.06755686)" />
      <text
         text-anchor="start"
         x="62.841301"
         y="-109.8"
         font-family="Times, serif"
         font-size="14px"
         fill="#000000"
         id="text18-1">valore</text>
      <polygon
         fill="none"
         stroke="#000000"
         points="60,-84 8,-84 8,-104 60,-104 "
         id="polygon20-0" />
      <text
         text-anchor="start"
         x="26.2241"
         y="-89.800003"
         font-family="Times, serif"
         font-size="14px"
         fill="#000000"
         id="text22-6">ptr</text>
      <polygon
         fill="none"
         stroke="#000000"
         points="60,-84 60,-104 96,-104 96,-84 "
         id="polygon24-3"
         transform="matrix(1.1337312,0,0,0.99919575,-7.9916997,-0.06755686)" />
      <polygon
         fill="none"
         stroke="#000000"
         points="60,-64 8,-64 8,-84 60,-84 "
         id="polygon26-2" />
      <text
         text-anchor="start"
         x="25.4482"
         y="-69.800003"
         font-family="Times, serif"
         font-size="14px"
         fill="#000000"
         id="text28-0">len</text>
      <polygon
         fill="none"
         stroke="#000000"
         points="60,-64 60,-84 96,-84 96,-64 "
         id="polygon30-6"
         transform="matrix(1.1337312,0,0,0.99919575,-7.9916997,-0.06755686)" />
      <text
         text-anchor="start"
         x="76.899979"
         y="-69.800003"
         font-family="Times, serif"
         font-size="14px"
         fill="#000000"
         id="text32-1">5</text>
      <polygon
         fill="none"
         stroke="#000000"
         points="60,-44 8,-44 8,-64 60,-64 "
         id="polygon34-5" />
      <text
         text-anchor="start"
         x="10.6826"
         y="-49.799999"
         font-family="Times, serif"
         font-size="14px"
         fill="#000000"
         id="text36-5">capacity</text>
      <polygon
         fill="none"
         stroke="#000000"
         points="60,-44 60,-64 96,-64 96,-44 "
         id="polygon38-4"
         transform="matrix(1.1337312,0,0,0.99919575,-7.9916997,-0.06755686)" />
      <text
         text-anchor="start"
         x="76.899979"
         y="-49.799999"
         font-family="Times, serif"
         font-size="14px"
         fill="#000000"
         id="text40-7">5</text>
    </g>
  </g>
</svg>
