<?xml version="1.0" encoding="UTF-8" standalone="no"?>
<!-- Generated by graphviz version 2.40.1 (20161225.0304)
 -->

<!-- Title: %3 Pages: 1 -->

<svg
   viewBox="0.00 0.00 1500.00 650.00"
   version="1.1"
   id="svg1706"
   sodipodi:docname="trpl04-06.svg"
   inkscape:version="1.2.2 (b0a8486541, 2022-12-01)"
   xmlns:inkscape="http://www.inkscape.org/namespaces/inkscape"
   xmlns:sodipodi="http://sodipodi.sourceforge.net/DTD/sodipodi-0.dtd"
   xmlns="http://www.w3.org/2000/svg"
   xmlns:svg="http://www.w3.org/2000/svg">
  <defs
     id="defs1710" />
  <sodipodi:namedview
     id="namedview1708"
     pagecolor="#505050"
     bordercolor="#ffffff"
     borderopacity="1"
     inkscape:showpageshadow="0"
     inkscape:pageopacity="0"
     inkscape:pagecheckerboard="1"
     inkscape:deskcolor="#505050"
     showgrid="false"
     inkscape:zoom="0.63266667"
     inkscape:cx="731.03267"
     inkscape:cy="469.44152"
     inkscape:window-width="1550"
     inkscape:window-height="831"
     inkscape:window-x="0"
     inkscape:window-y="0"
     inkscape:window-maximized="1"
     inkscape:current-layer="node3" />
  <g
     id="graph0"
     class="graph"
     transform="scale(4.1667 4.1667) rotate(0) translate(4 152)">
    <title
       id="title1578">%3</title>
    <polygon
       fill="#ffffff"
       stroke="transparent"
       points="-4,4 -4,-152 357,-152 357,4 -4,4"
       id="polygon1580" />
    <!-- table0 -->
    <g
       id="node1"
       class="node">
      <title
         id="title1582">table0</title>
      <polyline
         fill="none"
         stroke="#000000"
         points="8,-124 80,-124 "
         id="polyline1584" />
      <text
         text-anchor="start"
         x="41.2759"
         y="-129.8"
         font-family="Times,serif"
         font-size="14.00"
         fill="#000000"
         id="text1586">s</text>
      <polygon
         fill="none"
         stroke="#000000"
         points="8,-104 8,-124 44,-124 44,-104 8,-104"
         id="polygon1588" />
      <text
         text-anchor="start"
         x="10.8413"
         y="-109.8"
         font-family="Times, serif"
         font-size="14px"
         fill="#000000"
         id="text1590">nome</text>
      <polygon
         fill="none"
         stroke="#000000"
         points="44,-124 80,-124 80,-104 44,-104 "
         id="polygon1592"
         transform="matrix(1.1220244,0,0,0.99853795,-5.339833,-0.15205297)" />
      <text
         text-anchor="start"
         x="46.841301"
         y="-109.8"
         font-family="Times, serif"
         font-size="14px"
         fill="#000000"
         id="text1594">valore</text>
      <polygon
         fill="none"
         stroke="#000000"
         points="8,-84 8,-104 44,-104 44,-84 8,-84"
         id="polygon1596" />
      <text
         text-anchor="start"
         x="18.2241"
         y="-89.8"
         font-family="Times,serif"
         font-size="14.00"
         fill="#000000"
         id="text1598">ptr</text>
      <polygon
         fill="none"
         stroke="#000000"
         points="44,-104 80,-104 80,-84 44,-84 "
         id="polygon1600"
         transform="matrix(1.1220244,0,0,0.99853795,-5.339833,-0.15205297)" />
    </g>
    <!-- table1 -->
    <g
       id="node2"
       class="node">
      <title
         id="title1603">table1</title>
      <polyline
         fill="none"
         stroke="#000000"
         points="132,-124 220,-124 "
         id="polyline1605" />
      <text
         text-anchor="start"
         x="169.7759"
         y="-129.8"
         font-family="Times,serif"
         font-size="14.00"
         fill="#000000"
         id="text1607">s1</text>
      <polygon
         fill="none"
         stroke="#000000"
         points="132,-104 132,-124 184,-124 184,-104 132,-104"
         id="polygon1609" />
      <text
         text-anchor="start"
         x="142.84129"
         y="-109.8"
         font-family="Times, serif"
         font-size="14px"
         fill="#000000"
         id="text1611">nome</text>
      <polygon
         fill="none"
         stroke="#000000"
         points="184,-124 220,-124 220,-104 184,-104 "
         id="polygon1613"
         transform="matrix(1.1518405,0,0,0.99909062,-27.902286,-0.07638776)" />
      <text
         text-anchor="start"
         x="186.84129"
         y="-109.8"
         font-family="Times, serif"
         font-size="14px"
         fill="#000000"
         id="text1615">valore</text>
      <polygon
         fill="none"
         stroke="#000000"
         points="132,-84 132,-104 184,-104 184,-84 132,-84"
         id="polygon1617" />
      <text
         text-anchor="start"
         x="150.2241"
         y="-89.8"
         font-family="Times,serif"
         font-size="14.00"
         fill="#000000"
         id="text1619">ptr</text>
      <polygon
         fill="none"
         stroke="#000000"
         points="184,-104 220,-104 220,-84 184,-84 "
         id="polygon1621"
         transform="matrix(1.1518405,0,0,0.99909062,-27.902286,-0.07638776)" />
      <polygon
         fill="none"
         stroke="#000000"
         points="132,-64 132,-84 184,-84 184,-64 132,-64"
         id="polygon1623" />
      <text
         text-anchor="start"
         x="149.4482"
         y="-69.8"
         font-family="Times,serif"
         font-size="14.00"
         fill="#000000"
         id="text1625">len</text>
      <polygon
         fill="none"
         stroke="#000000"
         points="184,-84 220,-84 220,-64 184,-64 "
         id="polygon1627"
         transform="matrix(1.1518405,0,0,0.99909062,-27.902286,-0.07638776)" />
      <text
         text-anchor="start"
         x="201.85997"
         y="-69.800003"
         font-family="Times, serif"
         font-size="14px"
         fill="#000000"
         id="text1629">5</text>
      <polygon
         fill="none"
         stroke="#000000"
         points="132,-44 132,-64 184,-64 184,-44 132,-44"
         id="polygon1631" />
      <text
         text-anchor="start"
         x="134.6826"
         y="-49.8"
         font-family="Times,serif"
         font-size="14.00"
         fill="#000000"
         id="text1633">capacity</text>
      <polygon
         fill="none"
         stroke="#000000"
         points="184,-64 220,-64 220,-44 184,-44 "
         id="polygon1635"
         transform="matrix(1.1518405,0,0,0.99909062,-27.902286,-0.07638776)" />
      <text
         text-anchor="start"
         x="201.85997"
         y="-49.799999"
         font-family="Times, serif"
         font-size="14px"
         fill="#000000"
         id="text1637">5</text>
    </g>
    <!-- table0&#45;&gt;table1 -->
    <g
       id="edge2"
       class="edge"
       transform="matrix(0.90822069,0,0,1.0089802,12.217956,0.84414109)">
      <title
         id="title1640">table0:c-&gt;table1:borrowee</title>
      <path
         fill="none"
         stroke="#000000"
         d="m 62,-94 c 0,0 31.1184,0 59.9514,0"
         id="path1642" />
      <polygon
         fill="#000000"
         stroke="#000000"
         points="132,-94 122,-90.5001 122,-97.5001 "
         id="polygon1644" />
    </g>
    <!-- table2 -->
    <g
       id="node3"
       class="node">
      <title
         id="title1647">table2</title>
      <polygon
         fill="none"
         stroke="#000000"
         points="272.5,-124 309.5,-124 309.5,-104 272.5,-104 "
         id="polygon1649"
         transform="matrix(1.1013152,0,0,0.99958983,-37.141611,-0.02625088)" />
      <text
         text-anchor="start"
         x="267.28802"
         y="-109.8"
         font-family="Times, serif"
         font-size="14px"
         fill="#000000"
         id="text1651">indice</text>
      <polygon
         fill="none"
         stroke="#000000"
         points="309.5,-124 345.5,-124 345.5,-104 309.5,-104 "
         id="polygon1653"
         transform="matrix(1.1565908,0,0,0.99937406,-54.139683,-0.04005999)" />
      <text
         text-anchor="start"
         x="308.98123"
         y="-109.8"
         font-family="Times, serif"
         font-size="14px"
         fill="#000000"
         id="text1655">valore</text>
      <polygon
         fill="none"
         stroke="#000000"
         points="272.5,-104 309.5,-104 309.5,-84 272.5,-84 "
         id="polygon1657"
         transform="matrix(1.1013152,0,0,0.99958983,-37.141611,-0.02625088)" />
      <text
         text-anchor="start"
         x="281.25986"
         y="-89.800003"
         font-family="Times, serif"
         font-size="14px"
         fill="#000000"
         id="text1659">0</text>
      <polygon
         fill="none"
         stroke="#000000"
         points="309.5,-104 345.5,-104 345.5,-84 309.5,-84 "
         id="polygon1661"
         transform="matrix(1.1565908,0,0,0.99937406,-54.139683,-0.04005999)" />
      <text
         text-anchor="start"
         x="321.59995"
         y="-89.800003"
         font-family="Times, serif"
         font-size="14px"
         fill="#000000"
         id="text1663">h</text>
      <polygon
         fill="none"
         stroke="#000000"
         points="272.5,-84 309.5,-84 309.5,-64 272.5,-64 "
         id="polygon1665"
         transform="matrix(1.1013152,0,0,0.99958983,-37.141611,-0.02625088)" />
      <text
         text-anchor="start"
         x="281.25986"
         y="-69.800003"
         font-family="Times, serif"
         font-size="14px"
         fill="#000000"
         id="text1667">1</text>
      <polygon
         fill="none"
         stroke="#000000"
         points="309.5,-84 345.5,-84 345.5,-64 309.5,-64 "
         id="polygon1669"
         transform="matrix(1.1565908,0,0,0.99937406,-54.139683,-0.04005999)" />
      <text
         text-anchor="start"
         x="321.99304"
         y="-69.800003"
         font-family="Times, serif"
         font-size="14px"
         fill="#000000"
         id="text1671">e</text>
      <polygon
         fill="none"
         stroke="#000000"
         points="272.5,-64 309.5,-64 309.5,-44 272.5,-44 "
         id="polygon1673"
         transform="matrix(1.1013152,0,0,0.99958983,-37.141611,-0.02625088)" />
      <text
         text-anchor="start"
         x="281.25986"
         y="-49.799999"
         font-family="Times, serif"
         font-size="14px"
         fill="#000000"
         id="text1675">2</text>
      <polygon
         fill="none"
         stroke="#000000"
         points="309.5,-64 345.5,-64 345.5,-44 309.5,-44 "
         id="polygon1677"
         transform="matrix(1.1565908,0,0,0.99937406,-54.139683,-0.04005999)" />
      <text
         text-anchor="start"
         x="323.15515"
         y="-49.799999"
         font-family="Times, serif"
         font-size="14px"
         fill="#000000"
         id="text1679">l</text>
      <polygon
         fill="none"
         stroke="#000000"
         points="272.5,-44 309.5,-44 309.5,-24 272.5,-24 "
         id="polygon1681"
         transform="matrix(1.1013152,0,0,0.99958983,-37.141611,-0.02625088)" />
      <text
         text-anchor="start"
         x="281.25986"
         y="-29.799999"
         font-family="Times, serif"
         font-size="14px"
         fill="#000000"
         id="text1683">3</text>
      <polygon
         fill="none"
         stroke="#000000"
         points="309.5,-44 345.5,-44 345.5,-24 309.5,-24 "
         id="polygon1685"
         transform="matrix(1.1565908,0,0,0.99937406,-54.139683,-0.04005999)" />
      <text
         text-anchor="start"
         x="323.15515"
         y="-29.799999"
         font-family="Times, serif"
         font-size="14px"
         fill="#000000"
         id="text1687">l</text>
      <polygon
         fill="none"
         stroke="#000000"
         points="272.5,-24 309.5,-24 309.5,-4 272.5,-4 "
         id="polygon1689"
         transform="matrix(1.1013152,0,0,0.99958983,-37.141611,-0.02625088)" />
      <text
         text-anchor="start"
         x="281.25986"
         y="-9.8000002"
         font-family="Times, serif"
         font-size="14px"
         fill="#000000"
         id="text1691">4</text>
      <polygon
         fill="none"
         stroke="#000000"
         points="309.5,-24 345.5,-24 345.5,-4 309.5,-4 "
         id="polygon1693"
         transform="matrix(1.1565908,0,0,0.99937406,-54.139683,-0.04005999)" />
      <text
         text-anchor="start"
         x="321.59995"
         y="-9.8000002"
         font-family="Times, serif"
         font-size="14px"
         fill="#000000"
         id="text1695">o</text>
    </g>
    <!-- table1&#45;&gt;table2 -->
    <g
       id="edge1"
       class="edge"
       transform="matrix(0.81727357,0,0,1.0183415,42.1076,1.7240984)">
      <title
         id="title1698">table1:c-&gt;table2:pointee</title>
      <path
         fill="none"
         stroke="#000000"
         d="m 202,-94 c 0,0 31.3406,0 60.3797,0"
         id="path1700" />
      <polygon
         fill="#000000"
         stroke="#000000"
         points="262.5,-90.5001 262.5,-97.5001 272.5,-94 "
         id="polygon1702" />
    </g>
  </g>
</svg>
